<?xml version="1.0" standalone="no"?>
<!DOCTYPE svg PUBLIC "-//W3C//DTD SVG 20010904//EN"
 "http://www.w3.org/TR/2001/REC-SVG-20010904/DTD/svg10.dtd">
<svg version="1.0" xmlns="http://www.w3.org/2000/svg"
 width="700.000000pt" height="700.000000pt" viewBox="0 0 700.000000 700.000000"
 preserveAspectRatio="xMidYMid meet">
<metadata>
Created by potrace 1.11, written by Peter Selinger 2001-2013
</metadata>
<g transform="translate(0.000000,700.000000) scale(0.100000,-0.100000)"
fill="#000000" stroke="none">
<path d="M2875 6980 c-208 -50 -365 -187 -444 -387 -11 -29 -23 -65 -25 -79
-8 -42 -12 -44 -126 -60 -25 -3 -47 -8 -50 -9 -3 -2 -24 -6 -46 -9 -22 -4 -51
-9 -64 -11 -14 -3 -65 -12 -114 -21 -49 -8 -101 -21 -116 -29 -69 -36 -122
-129 -115 -200 4 -29 16 -110 21 -130 1 -5 5 -31 9 -56 l7 -46 -47 -7 c-26 -4
-57 -9 -68 -12 -57 -11 -145 -27 -172 -31 -16 -2 -77 -13 -135 -23 -58 -11
-121 -22 -140 -25 -19 -3 -48 -8 -65 -12 -16 -3 -39 -7 -50 -9 -11 -2 -33 -5
-50 -8 -121 -19 -166 -32 -231 -68 -70 -39 -139 -115 -176 -194 -39 -83 -45
-184 -18 -329 22 -122 49 -279 56 -320 3 -16 7 -37 9 -45 2 -8 6 -31 9 -50 6
-37 13 -79 21 -120 3 -14 7 -43 11 -65 3 -22 7 -47 10 -56 2 -9 7 -32 9 -50 3
-19 7 -45 10 -59 3 -14 17 -92 31 -175 14 -82 28 -159 30 -170 3 -11 7 -36 10
-55 2 -19 9 -57 14 -85 11 -56 16 -91 25 -150 4 -22 8 -47 10 -55 4 -12 157
-875 180 -1010 11 -67 55 -315 60 -340 3 -14 8 -38 10 -55 3 -16 21 -118 40
-225 19 -107 37 -211 40 -230 3 -19 7 -46 10 -60 3 -14 7 -41 10 -60 3 -19 8
-48 12 -65 3 -16 7 -39 9 -50 2 -11 10 -58 18 -105 8 -47 20 -110 25 -140 5
-30 12 -71 16 -90 34 -193 46 -258 49 -276 3 -12 7 -37 10 -55 3 -19 7 -43 10
-54 2 -11 7 -40 11 -65 4 -25 9 -54 11 -65 4 -20 20 -108 28 -155 12 -71 16
-98 21 -125 4 -26 10 -57 30 -165 30 -162 108 -272 241 -336 86 -41 183 -50
304 -28 41 7 93 16 115 20 22 3 42 7 45 9 3 2 26 6 50 9 25 3 56 8 70 11 27 6
70 13 255 45 66 11 131 22 145 25 32 6 248 45 275 49 11 2 36 6 55 10 68 12
315 55 350 61 19 3 42 8 50 10 8 2 35 7 60 10 25 4 90 15 145 25 107 20 308
56 370 66 21 3 47 8 59 10 26 5 243 44 271 49 46 7 382 65 405 70 45 9 134 25
175 30 22 4 47 8 55 10 8 2 29 7 45 9 17 3 95 17 175 31 204 36 458 81 570
100 52 9 129 22 170 30 41 8 93 17 115 20 205 29 345 146 390 323 18 71 16
145 -9 282 -30 167 -54 305 -70 400 -4 19 -11 58 -16 85 -5 28 -11 61 -14 75
-2 14 -7 41 -10 60 -3 19 -8 49 -11 65 -7 43 -52 295 -70 395 -8 47 -18 105
-21 130 -3 25 -8 47 -9 50 -2 3 -11 50 -20 105 -10 55 -19 109 -21 120 -2 11
-6 34 -9 50 -3 17 -19 107 -35 200 -17 94 -33 184 -36 200 -2 17 -7 37 -9 45
-2 8 -6 33 -10 55 -5 36 -11 76 -21 130 -2 11 -7 36 -10 55 -3 19 -12 69 -19
110 -8 41 -16 91 -19 110 -3 19 -14 82 -25 140 -11 58 -22 121 -25 140 -6 38
-16 94 -41 235 -29 162 -75 420 -79 442 -3 11 -8 43 -12 70 -3 26 -8 57 -11
68 -6 28 -22 124 -29 165 -3 19 -7 42 -9 50 -2 8 -6 29 -9 45 -10 59 -36 211
-41 235 -3 14 -7 40 -10 59 -2 18 -7 41 -9 50 -3 9 -7 34 -11 56 -3 22 -21
128 -40 235 -19 107 -37 211 -40 230 -43 256 -73 337 -154 417 -87 86 -179
123 -299 124 -40 0 -76 -2 -80 -5 -4 -2 -29 -7 -55 -10 -26 -4 -71 -11 -100
-17 -29 -5 -101 -18 -162 -29 -60 -11 -148 -26 -195 -35 -47 -8 -98 -17 -115
-20 -16 -3 -39 -7 -50 -10 -11 -2 -42 -7 -70 -11 -27 -3 -53 -8 -58 -11 -11
-7 -15 7 -38 152 -15 90 -51 157 -103 192 -35 23 -52 27 -111 28 -64 0 -160
-11 -175 -20 -3 -2 -26 -6 -50 -10 -25 -3 -81 -12 -125 -20 -153 -28 -137 -29
-168 18 -75 117 -205 210 -353 253 -82 23 -222 26 -309 4z m237 -423 c49 -27
78 -62 98 -115 52 -140 86 -178 177 -201 38 -11 59 -10 133 4 14 3 39 7 55 10
17 3 41 7 55 10 14 3 43 7 65 10 22 3 47 7 55 10 8 2 31 6 50 9 19 3 45 8 57
10 27 6 28 1 48 -139 4 -22 8 -47 10 -55 3 -8 7 -33 11 -55 3 -22 10 -58 15
-80 16 -73 13 -82 -28 -88 -21 -3 -77 -13 -126 -21 -48 -9 -104 -19 -125 -22
-20 -3 -44 -7 -52 -9 -8 -2 -37 -7 -65 -11 -27 -3 -53 -8 -56 -10 -3 -2 -34
-8 -70 -14 -82 -13 -112 -18 -174 -30 -27 -5 -61 -11 -75 -14 -14 -2 -52 -9
-85 -15 -33 -6 -76 -13 -95 -16 -19 -3 -42 -8 -50 -10 -8 -2 -37 -6 -65 -10
-27 -3 -57 -8 -65 -10 -8 -2 -31 -7 -50 -10 -19 -3 -84 -15 -145 -26 -60 -11
-126 -22 -145 -25 -19 -3 -65 -12 -102 -19 l-67 -12 -5 26 c-3 14 -12 64 -20
111 -18 104 -23 130 -36 199 -16 86 -23 78 90 96 19 3 58 10 85 15 28 5 67 12
89 16 21 3 48 8 60 10 11 2 37 7 56 10 54 8 118 43 145 78 37 49 47 85 46 169
-2 120 44 199 135 233 44 16 131 11 166 -9z m2098 -519 c7 -40 22 -131 35
-203 13 -71 33 -186 45 -255 11 -69 25 -145 30 -170 10 -46 15 -75 25 -145 3
-22 13 -76 21 -120 8 -44 28 -154 44 -245 16 -91 36 -205 45 -255 9 -49 18
-103 21 -120 3 -16 16 -93 30 -170 26 -145 27 -150 39 -225 4 -25 9 -54 11
-65 3 -11 20 -110 40 -220 70 -401 80 -459 90 -510 3 -16 14 -82 25 -145 11
-63 22 -126 25 -140 2 -14 7 -40 10 -59 3 -18 8 -43 10 -55 5 -25 63 -357 70
-401 3 -16 14 -77 24 -135 10 -58 21 -118 24 -135 5 -30 53 -299 61 -345 6
-30 12 -66 25 -140 15 -88 17 -102 29 -165 15 -79 16 -86 45 -255 14 -80 28
-159 32 -177 6 -31 6 -31 -47 -42 -69 -13 -178 -33 -204 -36 -11 -2 -58 -10
-105 -18 -118 -22 -127 -24 -290 -52 -80 -14 -154 -27 -165 -29 -46 -8 -91
-16 -110 -20 -11 -2 -90 -16 -175 -30 -185 -32 -169 -29 -350 -62 -80 -15
-156 -28 -170 -30 -24 -3 -59 -9 -110 -19 -14 -3 -38 -8 -55 -10 -16 -3 -104
-19 -195 -35 -91 -16 -181 -32 -200 -35 -19 -3 -71 -12 -115 -20 -133 -24
-139 -25 -174 -31 -18 -3 -43 -8 -55 -10 -24 -5 -141 -25 -171 -29 -21 -3
-252 -44 -390 -70 -71 -13 -370 -65 -450 -79 -156 -27 -214 -37 -235 -41 -14
-3 -68 -12 -120 -21 -52 -9 -104 -18 -115 -20 -11 -2 -33 -6 -50 -9 -16 -3
-42 -8 -57 -11 -23 -5 -28 -2 -29 15 -1 12 -2 24 -3 29 -2 4 -6 30 -11 57 -4
28 -9 59 -11 70 -6 31 -49 275 -95 535 -11 63 -22 126 -25 140 -2 14 -7 41
-10 60 -3 19 -7 42 -9 50 -3 8 -7 33 -10 55 -3 22 -10 63 -15 90 -12 60 -40
218 -46 260 -3 17 -12 66 -20 110 -8 44 -17 96 -20 115 -2 19 -9 55 -14 80 -5
25 -18 97 -29 160 -22 127 -29 165 -35 195 -2 11 -7 40 -11 65 -4 25 -9 54
-11 65 -7 33 -22 120 -40 230 -11 67 -44 253 -54 300 -5 28 -17 93 -25 145
-20 118 -23 139 -30 170 -3 14 -9 50 -14 80 -6 30 -17 96 -26 145 -9 50 -18
104 -21 120 -3 17 -14 80 -25 140 -11 61 -22 125 -25 144 -3 18 -7 43 -10 55
-7 35 -105 599 -110 631 -2 17 -9 50 -14 75 -10 48 -30 162 -35 195 -1 11 -5
34 -8 50 -4 17 -9 46 -12 65 -3 19 -10 58 -15 85 -34 175 -34 178 10 186 37 7
285 51 530 94 161 28 169 30 221 40 l36 7 7 -49 c4 -26 9 -55 11 -63 1 -8 8
-42 14 -74 6 -32 19 -73 29 -90 27 -46 95 -94 145 -101 37 -6 176 12 317 41
14 3 66 12 115 20 50 9 95 17 100 18 6 2 30 6 55 10 47 8 54 9 110 19 19 4 49
9 65 12 46 8 207 35 235 41 43 8 423 74 455 80 17 2 41 7 55 9 49 10 75 15
110 20 20 3 47 8 60 10 14 3 39 8 55 10 17 3 66 12 110 20 44 8 98 17 120 20
240 36 305 70 341 180 15 47 15 57 -5 172 -12 66 -21 123 -21 126 0 4 38 13
100 23 24 4 90 16 100 19 3 0 26 4 51 8 69 12 380 66 484 85 96 18 92 20 105
-60z"/>
<path d="M4590 4669 c-66 -13 -162 -63 -210 -111 -48 -48 -31 -25 -399 -553
-150 -214 -279 -399 -287 -410 -8 -11 -118 -168 -245 -350 -127 -181 -234
-331 -239 -333 -8 -3 -67 38 -384 260 -338 238 -393 261 -553 236 -215 -33
-373 -245 -343 -458 17 -114 56 -190 139 -264 19 -17 151 -113 295 -213 144
-101 268 -187 276 -193 8 -6 107 -76 220 -155 259 -183 323 -216 431 -220 125
-4 224 33 308 115 54 52 61 62 132 166 78 113 108 156 125 179 142 195 1177
1684 1192 1716 37 76 49 195 28 280 -31 134 -147 254 -286 297 -49 16 -147 21
-200 11z"/>
</g>
</svg>
