<svg xmlns="http://www.w3.org/2000/svg" width="148.608" height="177.743" viewBox="0 0 39.319 47.028">
  <g fill="#fff">
    <path d="M24.783 16.795l-7.51 10.733-4.212-2.953a2.815 2.815 0 0 0-3.917.69 2.815 2.815 0 0 0 .69 3.918l6.518 4.563c.633.448 1.39.595 2.1.47a2.825 2.825 0 0 0 1.818-1.155l9.127-13.035c.89-1.27.58-3.027-.69-3.917a2.822 2.822 0 0 0-3.924.686"/>
    <path d="M30.616 5.952l5.88 33.353-27.793 4.9-5.88-33.352 5.558-.98.245 1.39c.135.767.868 1.28 1.635 1.144l13.897-2.45a1.412 1.412 0 0 0 1.144-1.635l-.245-1.39zm-19.946.652l2.78-.49a1.412 1.412 0 0 0 1.144-1.635 1.412 1.412 0 0 1 2.78-.49c.135.767.867 1.28 1.634 1.144l2.78-.49.49 2.78-11.118 1.96zm12.017-4.985l-3.015.532A4.245 4.245 0 0 0 15.249.065a4.245 4.245 0 0 0-3.443 3.473l-3.015.531a1.412 1.412 0 0 0-1.145 1.635l.245 1.39-5.559.98a2.827 2.827 0 0 0-2.289 3.27l5.881 33.351a2.827 2.827 0 0 0 3.27 2.29l27.793-4.901a2.827 2.827 0 0 0 2.29-3.27L33.394 5.463a2.827 2.827 0 0 0-3.27-2.289l-5.558.98-.245-1.39a1.412 1.412 0 0 0-1.635-1.144"/>
  </g>
</svg>
