<?xml version="1.0" encoding="UTF-8" standalone="no"?>
<!-- Created with Inkscape (http://www.inkscape.org/) -->

<svg
   xmlns:dc="http://purl.org/dc/elements/1.1/"
   xmlns:cc="http://creativecommons.org/ns#"
   xmlns:rdf="http://www.w3.org/1999/02/22-rdf-syntax-ns#"
   xmlns:svg="http://www.w3.org/2000/svg"
   xmlns="http://www.w3.org/2000/svg"
   xmlns:sodipodi="http://sodipodi.sourceforge.net/DTD/sodipodi-0.dtd"
   xmlns:inkscape="http://www.inkscape.org/namespaces/inkscape"
   width="39.319191mm"
   height="47.02774mm"
   viewBox="0 0 39.319191 47.02774"
   version="1.1"
   id="svg899"
   inkscape:version="0.92.3 (2405546, 2018-03-11)"
   sodipodi:docname="ch.ckl.st.svg">
  <defs
     id="defs893" />
  <sodipodi:namedview
     id="base"
     pagecolor="#ffffff"
     bordercolor="#666666"
     borderopacity="1.0"
     inkscape:pageopacity="0.0"
     inkscape:pageshadow="2"
     inkscape:zoom="0.35"
     inkscape:cx="-447.54825"
     inkscape:cy="59.175204"
     inkscape:document-units="mm"
     inkscape:current-layer="g909"
     showgrid="false"
     inkscape:window-width="1649"
     inkscape:window-height="1042"
     inkscape:window-x="403"
     inkscape:window-y="204"
     inkscape:window-maximized="0" />
  <metadata
     id="metadata896">
    <rdf:RDF>
      <cc:Work
         rdf:about="">
        <dc:format>image/svg+xml</dc:format>
        <dc:type
           rdf:resource="http://purl.org/dc/dcmitype/StillImage" />
        <dc:title></dc:title>
      </cc:Work>
    </rdf:RDF>
  </metadata>
  <g
     inkscape:label="Layer 1"
     inkscape:groupmode="layer"
     id="layer1"
     transform="translate(-82.884047,-117.46236)">
    <g
       transform="matrix(0.35277777,0,0,-0.35277777,34.320236,230.07301)"
       inkscape:label="ink_ext_XXXXXX"
       id="g909">
      <path
         d="m 207.9109,271.60219 -21.28955,-30.42427 -11.93706,8.37223 c -3.60257,2.52246 -8.58096,1.64464 -11.10354,-1.95785 -2.52238,-3.60246 -1.64454,-8.58095 1.95783,-11.10345 l 18.47427,-12.93578 c 1.79478,-1.27047 3.94071,-1.68556 5.95095,-1.3311 2.01024,0.35446 3.88479,1.47847 5.15527,3.27323 l 25.87158,36.94846 c 2.52248,3.60247 1.64464,8.58095 -1.95783,11.10343 -3.60248,2.52248 -8.58374,1.66034 -11.12191,-1.94495"
         style="fill:#ffffff;fill-opacity:1;fill-rule:nonzero;stroke:none;stroke-width:0.04983526"
         id="path913"
         inkscape:connector-curvature="0"
         inkscape:export-xdpi="96"
         inkscape:export-ydpi="96" />
      <path
         d="m 224.44639,302.33826 16.67022,-94.54155 -78.78462,-13.89185 -16.67022,94.54154 15.75692,2.77837 0.69459,-3.93923 c 0.38342,-2.17445 2.45937,-3.62805 4.63383,-3.24464 l 39.39231,6.94593 c 2.17445,0.38342 3.62805,2.45937 3.24464,4.63383 l -0.6946,3.93923 z m -56.53842,-1.84584 7.87846,1.38919 c 2.17446,0.38341 3.62805,2.45937 3.24464,4.63382 -0.38342,2.17446 1.07018,4.25041 3.24464,4.63382 2.17445,0.38342 4.2504,-1.07018 4.63382,-3.24463 0.38342,-2.17446 2.45937,-3.62806 4.63382,-3.24464 l 7.87847,1.38918 1.38918,-7.87846 -31.51385,-5.55674 z m 34.06389,14.1298 -8.54813,-1.50727 c -2.43935,4.29771 -7.40045,6.81852 -12.53721,5.91277 -5.13676,-0.90575 -8.9365,-4.97134 -9.75884,-9.84416 l -8.54813,-1.50727 c -2.17445,-0.38341 -3.62805,-2.45937 -3.24464,-4.63382 l 0.6946,-3.93923 -15.75693,-2.77837 c -4.34103,-0.76545 -7.25472,-4.92662 -6.48928,-9.26765 l 16.67023,-94.54155 c 0.76544,-4.34103 4.92661,-7.25471 9.26765,-6.48927 l 78.78462,13.89185 c 4.34103,0.76544 7.25472,4.92662 6.48927,9.26765 l -16.67022,94.54154 c -0.76544,4.34104 -4.92662,7.25472 -9.26765,6.48928 l -15.75692,-2.77837 -0.6946,3.93923 c -0.38341,2.17446 -2.45936,3.62805 -4.63382,3.24464"
         style="fill:#ffffff;fill-opacity:1;fill-rule:nonzero;stroke:none;stroke-width:0.025"
         id="path921"
         inkscape:connector-curvature="0"
         inkscape:export-xdpi="96"
         inkscape:export-ydpi="96" />
    </g>
  </g>
</svg>
