<?xml version="1.0" encoding="UTF-8" standalone="no"?>
<!-- Created with Inkscape (http://www.inkscape.org/) -->

<svg
   xmlns:dc="http://purl.org/dc/elements/1.1/"
   xmlns:cc="http://creativecommons.org/ns#"
   xmlns:rdf="http://www.w3.org/1999/02/22-rdf-syntax-ns#"
   xmlns:svg="http://www.w3.org/2000/svg"
   xmlns="http://www.w3.org/2000/svg"
   xmlns:sodipodi="http://sodipodi.sourceforge.net/DTD/sodipodi-0.dtd"
   xmlns:inkscape="http://www.inkscape.org/namespaces/inkscape"
   version="1.1"
   id="svg2"
   xml:space="preserve"
   width="300"
   height="322.66666"
   viewBox="0 0 300 322.66666"
   sodipodi:docname="shareable-checklist.svg"
   inkscape:version="0.92.3 (2405546, 2018-03-11)"><metadata
     id="metadata8"><rdf:RDF><cc:Work
         rdf:about=""><dc:format>image/svg+xml</dc:format><dc:type
           rdf:resource="http://purl.org/dc/dcmitype/StillImage" /><dc:title></dc:title></cc:Work></rdf:RDF></metadata><defs
     id="defs6" /><sodipodi:namedview
     pagecolor="#ffffff"
     bordercolor="#666666"
     borderopacity="1"
     objecttolerance="10"
     gridtolerance="10"
     guidetolerance="10"
     inkscape:pageopacity="0"
     inkscape:pageshadow="2"
     inkscape:window-width="1595"
     inkscape:window-height="919"
     id="namedview4"
     showgrid="false"
     inkscape:zoom="0.73140498"
     inkscape:cx="154.10169"
     inkscape:cy="161.33333"
     inkscape:window-x="0"
     inkscape:window-y="0"
     inkscape:window-maximized="0"
     inkscape:current-layer="g10" /><g
     id="g10"
     inkscape:groupmode="layer"
     inkscape:label="ink_ext_XXXXXX"
     transform="matrix(1.3333333,0,0,-1.3333333,0,322.66667)"><g
       id="g12"
       transform="scale(0.1)"
       style="fill:#ffffff"><path
         d="m 794.02,708.59 c -78.321,172 -449.219,548.48 -449.219,548.48 -37.813,125.47 -120,132.31 -153.75,68.28 C 140.352,1229.26 72.0313,1043.16 19.2617,948.48 -2.37891,909.691 -5.07813,844.922 8.19922,812.66 c 0,0 427.92978,-282.699 635.12078,-733.91 56.84,-123.8711 123.559,-66.6016 242.5,-19.1016 106.801,42.6216 179.45,70.6606 175.16,123.1216 0,0 299.68,1215.43 1088.59,1918.52 43.95,39.14 32.66,139.14 58.24,208.59 18.56,50.35 58.56,94.14 33.48,100.51 -52.31,13.28 -128.48,-1.64 -250.59,-88.94 C 1611.02,2050.16 1255.51,1591.95 794.02,708.59"
         style="fill:#ffffff;fill-opacity:1;fill-rule:nonzero;stroke:none"
         id="path14"
         inkscape:connector-curvature="0" /></g></g></svg>