<svg xmlns="http://www.w3.org/2000/svg" width="300" height="322.667">
  <path d="M105.87 228.188c-10.443-22.933-59.897-73.13-59.897-73.13-5.041-16.73-16-17.642-20.5-9.105-6.76 12.812-15.869 37.626-22.905 50.25-2.885 5.172-3.245 13.807-1.475 18.109 0 0 57.058 37.693 84.683 97.855 7.579 16.516 16.475 8.88 32.333 2.547 14.24-5.683 23.927-9.422 23.355-16.417 0 0 39.957-162.057 145.145-255.802 5.86-5.219 4.355-18.552 7.766-27.812 2.474-6.714 7.808-12.552 4.464-13.402-6.975-1.77-17.131.219-33.412 11.859-50.624 36.172-98.026 97.267-159.558 215.048" fill="#fff"/>
</svg>
